<svg width="48" height="48" viewBox="0 0 48 48" fill="none" xmlns="http://www.w3.org/2000/svg">
<path opacity="0.4" d="M35.25 42.0003C36.5332 40.8597 38.4668 40.8597 39.75 42.0003C40.6218 42.7753 42 42.1564 42 40.9899V7.01038C42 5.84392 40.6218 5.22503 39.75 5.99998C38.4668 7.14058 36.5332 7.14058 35.25 5.99998C33.9668 4.85938 32.0332 4.85938 30.75 5.99998C29.4668 7.14058 27.5332 7.14058 26.25 5.99998C24.9668 4.85938 23.0332 4.85938 21.75 5.99998C20.4668 7.14058 18.5332 7.14058 17.25 5.99998C15.9668 4.85938 14.0332 4.85938 12.75 5.99998C11.4668 7.14058 9.53317 7.14058 8.25 5.99998C7.37818 5.22503 6 5.84392 6 7.01038V40.9899C6 42.1564 7.37818 42.7753 8.25 42.0003C9.53317 40.8597 11.4668 40.8597 12.75 42.0003C14.0332 43.1409 15.9668 43.1409 17.25 42.0003C18.5332 40.8597 20.4668 40.8597 21.75 42.0003C23.0332 43.1409 24.9668 43.1409 26.25 42.0003C27.5332 40.8597 29.4668 40.8597 30.75 42.0003C32.0332 43.1409 33.9668 43.1409 35.25 42.0003Z" stroke="url(#paint0_linear_92_1416)" stroke-width="3"/>
<path d="M15 31H33M15 24H33M15 17H33" stroke="url(#paint1_linear_92_1416)" stroke-width="3" stroke-linecap="round"/>
<defs>
<linearGradient id="paint0_linear_92_1416" x1="33.8999" y1="40.4987" x2="0.580048" y2="10.9308" gradientUnits="userSpaceOnUse">
<stop stop-color="#4563FF"/>
<stop offset="1" stop-color="#58AFFF"/>
</linearGradient>
<linearGradient id="paint1_linear_92_1416" x1="33.5" y1="31" x2="12.975" y2="17.1125" gradientUnits="userSpaceOnUse">
<stop stop-color="#4563FF"/>
<stop offset="1" stop-color="#58AFFF"/>
</linearGradient>
</defs>
</svg>
