<svg width="25" height="24" viewBox="0 0 25 24" fill="none" xmlns="http://www.w3.org/2000/svg">
<path opacity="0.5" d="M2.16699 12H22.167M16.167 12C16.167 13.3132 16.0635 14.6136 15.8625 15.8268C15.6615 17.0401 15.3669 18.1425 14.9954 19.0711C14.624 19.9997 14.183 20.7362 13.6977 21.2388C13.2124 21.7413 12.6923 22 12.167 22C11.6417 22 11.1216 21.7413 10.6363 21.2388C10.151 20.7362 9.71 19.9997 9.33856 19.0711C8.96713 18.1425 8.67249 17.0401 8.47147 15.8268C8.27046 14.6136 8.16699 13.3132 8.16699 12C8.16699 10.6868 8.27046 9.38642 8.47147 8.17316C8.67249 6.95991 8.96713 5.85752 9.33857 4.92893C9.71 4.00035 10.151 3.26375 10.6363 2.7612C11.1216 2.25866 11.6417 2 12.167 2C12.6923 2 13.2124 2.25866 13.6977 2.76121C14.183 3.26375 14.624 4.00035 14.9954 4.92893C15.3669 5.85752 15.6615 6.95991 15.8625 8.17317C16.0635 9.38642 16.167 10.6868 16.167 12Z" stroke="#4563FF" stroke-width="1.5" stroke-linecap="round"/>
<path d="M22.167 12C22.167 13.3132 21.9083 14.6136 21.4058 15.8268C20.9032 17.0401 20.1666 18.1425 19.2381 19.0711C18.3095 19.9997 17.2071 20.7362 15.9938 21.2388C14.7806 21.7413 13.4802 22 12.167 22C10.8538 22 9.55341 21.7413 8.34016 21.2388C7.1269 20.7362 6.02451 19.9997 5.09592 19.0711C4.16734 18.1425 3.43074 17.0401 2.9282 15.8268C2.42565 14.6136 2.16699 13.3132 2.16699 12C2.16699 10.6868 2.42565 9.38642 2.9282 8.17316C3.43074 6.95991 4.16734 5.85752 5.09593 4.92893C6.02451 4.00035 7.1269 3.26375 8.34016 2.7612C9.55341 2.25866 10.8538 2 12.167 2C13.4802 2 14.7806 2.25866 15.9938 2.76121C17.2071 3.26375 18.3095 4.00035 19.2381 4.92893C20.1666 5.85752 20.9032 6.95991 21.4058 8.17317C21.9083 9.38642 22.167 10.6868 22.167 12L22.167 12Z" stroke="#4563FF" stroke-width="1.5"/>
</svg>
