<svg width="40" height="41" viewBox="0 0 40 41" fill="none" xmlns="http://www.w3.org/2000/svg">
<path d="M24.9292 15.6184L19.9997 20.4999L15.0702 15.6184C10.1994 10.7949 7.76395 8.3832 8.44576 6.3024C8.50437 6.12353 8.57715 5.94954 8.66342 5.78202C9.66711 3.83325 13.1113 3.83325 19.9997 3.83325C26.8881 3.83325 30.3322 3.83325 31.3359 5.78202C31.4222 5.94954 31.495 6.12353 31.5536 6.3024C32.2354 8.3832 29.8 10.7949 24.9292 15.6184Z" stroke="url(#paint0_linear_79_593)" stroke-width="2.5"/>
<path opacity="0.5" d="M15.0702 25.3816L19.9997 20.5L24.9292 25.3816C29.8 30.205 32.2354 32.6167 31.5536 34.6975C31.495 34.8764 31.4222 35.0504 31.3359 35.2179C30.3322 37.1667 26.8881 37.1667 19.9997 37.1667C13.1113 37.1667 9.66711 37.1667 8.66342 35.2179C8.57715 35.0504 8.50437 34.8764 8.44576 34.6975C7.76395 32.6167 10.1994 30.205 15.0702 25.3816L15.0702 25.3816Z" stroke="url(#paint1_linear_79_593)" stroke-width="2.5"/>
<defs>
<linearGradient id="paint0_linear_79_593" x1="30.9944" y1="20.4999" x2="6.3125" y2="14.3737" gradientUnits="userSpaceOnUse">
<stop stop-color="#4563FF"/>
<stop offset="1" stop-color="#58AFFF"/>
</linearGradient>
<linearGradient id="paint1_linear_79_593" x1="30.9944" y1="37.1667" x2="6.3125" y2="31.0404" gradientUnits="userSpaceOnUse">
<stop stop-color="#4563FF"/>
<stop offset="1" stop-color="#58AFFF"/>
</linearGradient>
</defs>
</svg>
