<svg width="25" height="24" viewBox="0 0 25 24" fill="none" xmlns="http://www.w3.org/2000/svg">
<path d="M12.332 17V11" stroke="#4563FF" stroke-width="1.5" stroke-linecap="round"/>
<circle cx="1" cy="1" r="1" transform="matrix(1 0 0 -1 11.332 9)" fill="#4563FF"/>
<path opacity="0.5" d="M2.33203 12C2.33203 7.28595 2.33203 4.92893 3.7965 3.46447C5.26096 2 7.61799 2 12.332 2C17.0461 2 19.4031 2 20.8676 3.46447C22.332 4.92893 22.332 7.28595 22.332 12C22.332 16.714 22.332 19.0711 20.8676 20.5355C19.4031 22 17.0461 22 12.332 22C7.61799 22 5.26096 22 3.7965 20.5355C2.33203 19.0711 2.33203 16.714 2.33203 12Z" stroke="#4563FF" stroke-width="1.5"/>
</svg>
