<svg width="23" height="18" viewBox="0 0 23 18" fill="none" xmlns="http://www.w3.org/2000/svg">
<path fill-rule="evenodd" clip-rule="evenodd" d="M1.38078 0.511211C0.808898 0.811461 0.491211 1.41998 0.491211 2.2153V2.8539L2.28623 3.8136C4.75668 5.13433 8.19557 6.81709 9.45636 7.32228C10.9061 7.90317 11.7275 7.89183 13.2582 7.26975C14.6256 6.71401 17.5452 5.29981 20.1105 3.95071L22.0315 2.94034V2.21345C22.0315 1.69051 21.9574 1.36905 21.7673 1.06818C21.2491 0.247335 21.7657 0.28593 11.2971 0.28593C2.34947 0.28593 1.78551 0.298754 1.38078 0.511211ZM0.491211 11.0464C0.491211 16.1348 0.507083 16.5336 0.725886 16.9342C0.855002 17.1705 1.15253 17.4748 1.38721 17.6105C1.80365 17.8511 2.04009 17.8571 11.2613 17.8571C20.1183 17.8571 20.7348 17.8433 21.1237 17.6352C21.352 17.5133 21.6494 17.2359 21.7846 17.0187C22.0189 16.6427 22.0306 16.3612 22.031 11.0958C22.0312 8.05521 21.9881 5.586 21.935 5.60869C21.8819 5.63126 20.4224 6.34742 18.6913 7.2002C15.1718 8.93426 13.1263 9.81158 12.0079 10.0669C11.3645 10.2139 11.1558 10.2138 10.5656 10.0666C9.51708 9.80492 7.18469 8.79541 3.73585 7.11056C2.02158 6.27319 0.590347 5.5881 0.555202 5.5881C0.519932 5.5881 0.491211 8.04436 0.491211 11.0464Z" fill="#4563FF"/>
</svg>
