<svg width="32" height="32" viewBox="0 0 32 32" fill="none" xmlns="http://www.w3.org/2000/svg">
<g id="icon-05">
<path id="Subtract" fill-rule="evenodd" clip-rule="evenodd" d="M4.42871 16.0001C4.42871 9.6196 9.63426 4.42871 16.0328 4.42871C22.4314 4.42871 27.637 9.6196 27.637 16.0001C27.637 16.904 27.5616 17.6357 27.3926 18.3702L27.3901 18.3823C27.3897 18.3845 27.3058 18.7231 27.2595 18.8708C26.9727 19.7855 26.4535 20.5473 25.7578 21.0738C25.0832 21.5846 24.2467 21.8659 23.4026 21.8659C23.2983 21.8659 23.1933 21.8617 23.0904 21.8534C21.8916 21.7575 20.8376 21.1284 20.1913 20.1254C19.0797 21.24 17.6048 21.8532 16.0328 21.8532C12.7963 21.8532 10.1632 19.2275 10.1632 16.0001C10.1632 12.7727 12.7963 10.1471 16.0328 10.1471C19.2693 10.1471 21.9024 12.7727 21.9024 16.0001V17.8868C21.9073 18.9877 22.6481 19.4378 23.281 19.4887C23.9108 19.5371 24.7488 19.1714 25.0407 17.9776C25.1847 17.3229 25.2579 16.6574 25.2579 16.0001C25.2579 10.9277 21.1195 6.80106 16.0328 6.80106C10.9461 6.80106 6.80784 10.9277 6.80784 16.0001C6.80784 21.0724 10.9461 25.1991 16.0328 25.1991C17.8035 25.1991 19.5255 24.6949 21.0128 23.7408L21.0395 23.7237L22.6027 25.536L22.5692 25.5589C20.6373 26.8756 18.377 27.5716 16.0328 27.5716C9.63426 27.5716 4.42871 22.3806 4.42871 16.0001ZM16.0331 19.4809C17.9577 19.4809 19.5236 17.9194 19.5236 16.0002C19.5236 14.081 17.9577 12.5196 16.0331 12.5196C14.1084 12.5196 12.5426 14.081 12.5426 16.0002C12.5426 17.9194 14.1084 19.4809 16.0331 19.4809Z" fill="#4563FF"/>
</g>
</svg>
