<svg width="32" height="32" viewBox="0 0 32 32" fill="none" xmlns="http://www.w3.org/2000/svg">
<g id="icon-04">
<path id="Vector" fill-rule="evenodd" clip-rule="evenodd" d="M14.3991 4.21584C10.3503 4.83872 6.92781 7.2553 5.28946 10.6479C4.66104 11.9493 4.43563 12.7129 4.25825 14.1419C4.0291 15.9865 4.38387 17.9468 5.27349 19.7525C5.93805 21.1012 6.67488 22.0887 7.75865 23.0826L8.5657 23.8229V25.9114C8.5657 27.1739 8.60875 28 8.67467 28C8.73459 28 9.6488 27.5159 10.7062 26.9242L12.6287 25.8485L13.5139 26.0375C14.8352 26.3196 16.8979 26.3741 18.2064 26.1616C22.818 25.4125 26.5607 22.2881 27.7608 18.1853C29.5611 12.0309 25.5038 5.76761 18.8167 4.37832C17.7454 4.15581 15.36 4.06806 14.3991 4.21584ZM12.4579 14.7871C9.27908 18.1246 8.60116 18.8518 8.73561 18.7801C8.79791 18.7469 10.0923 18.0466 11.612 17.224L14.3751 15.7283L14.7156 16.1133C14.9029 16.3251 15.5911 17.0453 16.2451 17.7136L17.4341 18.9289L17.6836 18.6674C18.7731 17.5261 23.2791 12.7381 23.45 12.5402C23.5704 12.4008 22.4219 12.9635 20.8533 13.8121L18.0407 15.3339L16.5017 13.8121C15.6551 12.9753 14.9341 12.2904 14.8992 12.2904C14.8645 12.2904 13.7658 13.4139 12.4579 14.7871Z" fill="#4563FF"/>
</g>
</svg>
