<svg width="32" height="32" viewBox="0 0 32 32" fill="none" xmlns="http://www.w3.org/2000/svg">
<g id="icon-03">
<path id="Vector" fill-rule="evenodd" clip-rule="evenodd" d="M14.6133 10.0811C8.579 12.3958 3.45493 14.3873 3.22655 14.5064C2.99804 14.6255 2.74658 14.8633 2.66763 15.0349C2.40356 15.6088 2.85112 15.8492 5.99717 16.8229C7.57 17.3098 8.91584 17.708 8.98797 17.708C9.06011 17.708 12.0433 15.8817 15.6174 13.6495C21.5619 9.9367 22.7474 9.27859 22.7474 9.69119C22.7474 9.74626 20.3639 11.9182 17.4508 14.5176C13.6809 17.8817 12.1539 19.3196 12.1532 19.5063C12.1527 19.6505 12.0683 20.8925 11.9658 22.2661C11.8633 23.6398 11.7786 24.8119 11.7776 24.8708C11.7726 25.1787 12.5799 24.7059 13.4153 23.912C13.9355 23.4178 14.6515 22.7422 15.0067 22.4107L15.6522 21.8083L18.4747 23.8791C20.0269 25.018 21.5006 26.0122 21.7496 26.0885C22.3175 26.2626 22.8948 26.0069 23.1064 25.4876C23.3096 24.989 27.0351 7.53615 27.0351 7.08297C27.0351 6.62516 26.7402 6.02786 26.4619 5.92209C26.3497 5.87951 26.1064 5.85078 25.9213 5.8584C25.7363 5.86602 20.6476 7.76618 14.6133 10.0811Z" fill="#4563FF"/>
</g>
</svg>
