<svg width="32" height="32" viewBox="0 0 32 32" fill="none" xmlns="http://www.w3.org/2000/svg">
<g id="icon-02">
<path id="Vector" fill-rule="evenodd" clip-rule="evenodd" d="M14.6834 4.63918C9.06621 5.51207 4.99269 9.92028 4.71849 15.423C4.61873 17.425 4.99596 19.2668 5.84856 20.9412L6.22056 21.6716L5.40791 24.6058C4.96092 26.2196 4.60934 27.5539 4.62658 27.5709C4.64383 27.5879 5.973 27.2607 7.5803 26.8436C9.18759 26.4266 10.5626 26.0853 10.636 26.0853C10.7092 26.0853 11.0977 26.2325 11.4993 26.4122C12.8539 27.0188 14.0738 27.2824 15.8267 27.3477C17.5187 27.4106 18.5227 27.2817 19.9137 26.8226C22.1529 26.0838 24.31 24.5097 25.6785 22.616C26.3901 21.6312 27.1254 20.0643 27.4649 18.8094C27.725 17.8478 27.7564 17.5397 27.7564 15.953C27.7564 14.3797 27.7239 14.0548 27.4744 13.1376C26.9511 11.2144 26.0189 9.5636 24.6558 8.14648C22.978 6.40242 20.9689 5.28409 18.614 4.78373C17.6619 4.58141 15.5539 4.50391 14.6834 4.63918ZM15.1079 6.57435C13.5981 6.78163 12.0614 7.34225 10.944 8.09344C10.1847 8.60394 8.87661 9.87436 8.4007 10.5635C6.30374 13.5998 6.10792 17.5188 7.89804 20.6209L8.35802 21.4179L7.89117 23.0732C7.63433 23.9836 7.44647 24.7504 7.47365 24.7773C7.50072 24.8041 8.30606 24.6235 9.26323 24.376L11.0036 23.9259L11.7034 24.3058C15.0352 26.1143 19.2758 25.7242 22.2735 23.3335C23.909 22.0292 25.029 20.2839 25.5977 18.1537C25.8897 17.0598 25.8648 14.8011 25.5478 13.6355C25.0756 11.8988 24.2082 10.4483 22.9004 9.20908C21.9361 8.29523 21.3051 7.85878 20.257 7.38062C18.7303 6.68397 16.6648 6.3606 15.1079 6.57435ZM11.618 10.8694C10.9411 11.2771 10.3627 12.4551 10.3627 13.4257C10.3627 15.5045 13.3163 19.1573 16.0933 20.5131C18.1692 21.5264 19.5263 21.705 20.7106 21.1207C21.5295 20.7166 21.8679 20.3356 22.0411 19.6223C22.2602 18.7206 22.2075 18.6529 20.7531 17.9658C20.0412 17.6295 19.3799 17.3543 19.2834 17.3543C19.1868 17.3543 18.8471 17.6664 18.5285 18.048C18.2097 18.4296 17.864 18.7722 17.7601 18.8091C17.5086 18.8988 16.0326 18.1341 15.3189 17.5443C14.3492 16.7431 13.4191 15.5652 13.4191 15.1383C13.4191 15.0142 13.5467 14.7951 13.7025 14.6513C13.8585 14.5076 14.0746 14.2196 14.1828 14.0114L14.3795 13.6327L13.9185 12.5023C13.3961 11.2212 13.2199 10.8671 13.0479 10.7537C12.8159 10.6008 11.9473 10.6709 11.618 10.8694Z" fill="#4563FF"/>
</g>
</svg>
